<svg width="107" height="124" viewBox="0 0 107 124" fill="none" xmlns="http://www.w3.org/2000/svg">
<path d="M1.80619 21.0139L1.78658 21.058L1.77132 21.1038C1.44735 22.0757 1.3 23.2161 1.3 24.5V115.22C1.3 117.585 1.83839 119.533 3.13289 120.827C4.4274 122.122 6.37543 122.66 8.74 122.66H30.44C31.4663 122.66 32.422 122.507 33.2936 122.183C34.1663 121.89 34.9224 121.514 35.4511 121.003L53.619 105.909L53.6249 105.904L53.6308 105.899C54.4138 105.228 54.9759 104.389 55.3133 103.402C55.7449 102.41 55.94 101.251 55.94 99.96V94.1995C60.9062 93.963 65.1646 93.2659 68.6962 92.0887L68.7033 92.0863L68.7104 92.0839C72.5245 90.7489 75.6723 89.0639 78.121 87.0075C78.1218 87.0069 78.1225 87.0063 78.1232 87.0057L96.319 71.8892L96.327 71.8825C99.5369 69.159 101.792 65.883 103.066 62.063C104.413 58.2124 105.08 53.9949 105.08 49.42V31.5C105.08 27.2153 104.509 23.2429 103.357 19.5903C102.282 15.8836 100.373 12.701 97.6341 10.0601C94.881 7.40535 91.1847 5.37876 86.5983 3.94551C81.991 2.50576 76.3297 1.8 69.64 1.8H26.8C25.7783 1.8 24.7965 1.95157 23.8601 2.25928C23.0279 2.47155 22.2928 2.80117 21.6953 3.27913L21.6848 3.28751L21.6746 3.29616L3.61459 18.5562L3.61457 18.5561L3.60921 18.5607C2.83545 19.224 2.23567 20.0475 1.80619 21.0139ZM53.54 75.72H52.54V76.72V99.96C52.54 101.598 52.1503 102.595 51.5729 103.173C51.1069 103.639 50.1779 104 48.5 104H26.8C25.1789 104 24.1726 103.663 23.5889 103.171C23.0972 102.587 22.76 101.581 22.76 99.96V9.24C22.76 7.56208 23.1211 6.63311 23.5871 6.1671C24.1645 5.5897 25.1625 5.2 26.8 5.2H69.64C82.2703 5.2 90.5775 7.72112 94.9462 12.4394C99.4113 17.2616 101.68 23.5831 101.68 31.5V49.42C101.68 57.3369 99.4113 63.6584 94.9462 68.4806C90.5775 73.1989 82.2703 75.72 69.64 75.72H53.54ZM39.84 65.82H67.68C72.1224 65.82 75.7898 65.3493 78.6409 64.3671C81.5425 63.3993 83.8493 62.0667 85.4882 60.3254L85.498 60.315L85.5074 60.3044C87.1109 58.5004 88.2121 56.3946 88.8102 54.0025L88.8124 53.9934C89.3929 51.5746 89.68 48.9754 89.68 46.2V35.84C89.68 33.0646 89.3929 30.4654 88.8124 28.0466C88.2167 25.5644 87.1174 23.4069 85.5074 21.5956C83.8704 19.754 81.562 18.3693 78.6554 17.3977C75.7955 16.3168 72.1218 15.8 67.68 15.8H37.44H36.44V16.8V92.4V93.4H37.44H38.84H39.84V92.4V65.82ZM67.68 62.42H39.84V19.2H67.68C71.7241 19.2 74.9064 19.6614 77.2727 20.5377L77.2932 20.5453L77.314 20.552C79.8058 21.353 81.6397 22.4844 82.8902 23.9016C84.1729 25.3554 85.0309 27.0658 85.4628 29.0524L85.4672 29.0725L85.4724 29.0924C86.0082 31.1464 86.28 33.3939 86.28 35.84V46.2C86.28 48.6461 86.0082 50.8936 85.4724 52.9476L85.4684 52.9629L85.4649 52.9784C85.0366 54.8628 84.1844 56.5279 82.9002 57.987C81.6495 59.3164 79.8119 60.4051 77.314 61.2079L77.3038 61.2113C74.9255 62.0041 71.7312 62.42 67.68 62.42ZM53.26 29.38H52.26V30.38V51.52V52.52H53.26H65.86C68.6791 52.52 70.9208 51.7956 72.0375 49.9345C72.9787 48.3658 73.44 46.5984 73.44 44.66V37.24C73.44 35.3016 72.9787 33.5342 72.0375 31.9655C70.9208 30.1044 68.6791 29.38 65.86 29.38H53.26Z" stroke="#DB6C79" stroke-width="2"/>
</svg>